[Header]
FileType HTR
DataType HTRS
FileVersion 1
NumSegments 64
NumFrames 3
DataFrameRate 24
EulerRotationOrder ZYX
CalibrationUnits mm
RotationUnits Degrees
GlobalAxisofGravity Y
BoneLengthAxis Y
ScaleFactor 1.0
[SegmentNames&Hierarchy]
Hips	GLOBAL
Spine	Hips
Spine1	Spine
Spine2	Spine1
Neck	Spine2
Head	Neck
LeftEye	Head
RightEye	Head
LeftShoulder	Spine2
LeftArm	LeftShoulder
LeftForeArm	LeftArm
LeftHand	LeftForeArm
LeftHandThumb1	LeftHand
LeftHandThumb2	LeftHandThumb1
LeftHandThumb3	LeftHandThumb2
LeftHandThumb4	LeftHandThumb3
LeftHandIndex1	LeftHand
LeftHandIndex2	LeftHandIndex1
LeftHandIndex3	LeftHandIndex2
LeftHandIndex4	LeftHandIndex3
LeftHandMiddle1	LeftHand
LeftHandMiddle2	LeftHandMiddle1
LeftHandMiddle3	LeftHandMiddle2
LeftHandMiddle4	LeftHandMiddle3
LeftHandRing1	LeftHand
LeftHandRing2	LeftHandRing1
LeftHandRing3	LeftHandRing2
LeftHandRing4	LeftHandRing3
LeftHandPinky1	LeftHand
LeftHandPinky2	LeftHandPinky1
LeftHandPinky3	LeftHandPinky2
LeftHandPinky4	LeftHandPinky3
RightShoulder	Spine2
RightArm	RightShoulder
RightForeArm	RightArm
RightHand	RightForeArm
RightHandPinky1	RightHand
RightHandPinky2	RightHandPinky1
RightHandPinky3	RightHandPinky2
RightHandPinky4	RightHandPinky3
RightHandRing1	RightHand
RightHandRing2	RightHandRing1
RightHandRing3	RightHandRing2
RightHandRing4	RightHandRing3
RightHandMiddle1	RightHand
RightHandMiddle2	RightHandMiddle1
RightHandMiddle3	RightHandMiddle2
RightHandMiddle4	RightHandMiddle3
RightHandIndex1	RightHand
RightHandIndex2	RightHandIndex1
RightHandIndex3	RightHandIndex2
RightHandIndex4	RightHandIndex3
RightHandThumb1	RightHand
RightHandThumb2	RightHandThumb1
RightHandThumb3	RightHandThumb2
RightHandThumb4	RightHandThumb3
LeftUpLeg	Hips
LeftLeg	LeftUpLeg
LeftFoot	LeftLeg
LeftToeBase	LeftFoot
RightUpLeg	Hips
RightLeg	RightUpLeg
RightFoot	RightLeg
RightToeBase	RightFoot
[BasePosition]
Hips	0	0	0	0	0	0	1
Spine	0	0	0	0	0	0	1
Spine1	0	0	0	0	0	0	1
Spine2	0	0	0	0	0	0	1
Neck	0	0	0	0	0	0	1
Head	0	0	0	0	0	0	1
LeftEye	0	0	0	0	0	0	1
RightEye	0	0	0	0	0	0	1
LeftShoulder	0	0	0	0	0	0	1
LeftArm	0	0	0	0	0	0	1
LeftForeArm	0	0	0	0	0	0	1
LeftHand	0	0	0	0	0	0	1
LeftHandThumb1	0	0	0	0	0	0	1
LeftHandThumb2	0	0	0	0	0	0	1
LeftHandThumb3	0	0	0	0	0	0	1
LeftHandThumb4	0	0	0	0	0	0	1
LeftHandIndex1	0	0	0	0	0	0	1
LeftHandIndex2	0	0	0	0	0	0	1
LeftHandIndex3	0	0	0	0	0	0	1
LeftHandIndex4	0	0	0	0	0	0	1
LeftHandMiddle1	0	0	0	0	0	0	1
LeftHandMiddle2	0	0	0	0	0	0	1
LeftHandMiddle3	0	0	0	0	0	0	1
LeftHandMiddle4	0	0	0	0	0	0	1
LeftHandRing1	0	0	0	0	0	0	1
LeftHandRing2	0	0	0	0	0	0	1
LeftHandRing3	0	0	0	0	0	0	1
LeftHandRing4	0	0	0	0	0	0	1
LeftHandPinky1	0	0	0	0	0	0	1
LeftHandPinky2	0	0	0	0	0	0	1
LeftHandPinky3	0	0	0	0	0	0	1
LeftHandPinky4	0	0	0	0	0	0	1
RightShoulder	0	0	0	0	0	0	1
RightArm	0	0	0	0	0	0	1
RightForeArm	0	0	0	0	0	0	1
RightHand	0	0	0	0	0	0	1
RightHandPinky1	0	0	0	0	0	0	1
RightHandPinky2	0	0	0	0	0	0	1
RightHandPinky3	0	0	0	0	0	0	1
RightHandPinky4	0	0	0	0	0	0	1
RightHandRing1	0	0	0	0	0	0	1
RightHandRing2	0	0	0	0	0	0	1
RightHandRing3	0	0	0	0	0	0	1
RightHandRing4	0	0	0	0	0	0	1
RightHandMiddle1	0	0	0	0	0	0	1
RightHandMiddle2	0	0	0	0	0	0	1
RightHandMiddle3	0	0	0	0	0	0	1
RightHandMiddle4	0	0	0	0	0	0	1
RightHandIndex1	0	0	0	0	0	0	1
RightHandIndex2	0	0	0	0	0	0	1
RightHandIndex3	0	0	0	0	0	0	1
RightHandIndex4	0	0	0	0	0	0	1
RightHandThumb1	0	0	0	0	0	0	1
RightHandThumb2	0	0	0	0	0	0	1
RightHandThumb3	0	0	0	0	0	0	1
RightHandThumb4	0	0	0	0	0	0	1
LeftUpLeg	0	0	0	0	0	0	1
LeftLeg	0	0	0	0	0	0	1
LeftFoot	0	0	0	0	0	0	1
LeftToeBase	0	0	0	0	0	0	1
RightUpLeg	0	0	0	0	0	0	1
RightLeg	0	0	0	0	0	0	1
RightFoot	0	0	0	0	0	0	1
RightToeBase	0	0	0	0	0	0	1
[Hips]
1	-14.51627731	908.8249512	6.717380524	29.25992012	-80.43730164	-9.098893166	1.0
2	-205.3861694	910.21875	7.27260685	17.3429966	-81.89064026	3.525137663	1.0
3	-402.0617981	924.8781738	7.101602554	-7.57765913	-81.79199982	28.78892517	1.0
[Spine]
1	0	101.8159943	1.315000057	8.812396049	10.37902737	-0.4762451947	1.0
2	0	101.8159943	1.315000057	8.666276932	13.60087872	-3.077235937	1.0
3	0	101.8159943	1.315000057	7.774022102	17.03940392	-7.183856964	1.0
[Spine1]
1	0	100.8349991	-10.00800037	3.450308323	4.268742561	-1.085518718	1.0
2	0	100.8349991	-10.00800037	3.368201017	5.690276146	-1.960875034	1.0
3	0	100.8349991	-10.00800037	3.117356539	7.00919342	-2.860353708	1.0
[Spine2]
1	0	91	-13.73399925	3.441999912	4.25916481	-1.136751175	1.0
2	0	91	-13.73399925	3.351869583	5.671461582	-2.03360939	1.0
3	0	91	-13.73399925	3.073805094	6.990427017	-2.943753004	1.0
[Neck]
1	0	166.7169952	-25.16200066	-2.304938078	7.170525074	1.399479985	1.0
2	0	166.7169952	-25.16200066	-2.090160131	6.015561581	2.434756756	1.0
3	0	166.7169952	-25.16200066	-1.103577495	4.659716129	3.363776922	1.0
[Head]
1	0	96.17900085	16.84999847	-37.66477203	37.22315216	-38.97409439	1.0
2	0	96.17900085	16.84999847	-35.03335571	35.12450409	-35.7867775	1.0
3	0	96.17900085	16.84999847	-31.58490372	32.69401932	-31.98698235	1.0
[LeftEye]
1	30.6760006	64.09500122	92.83599854	0	0	0	1.0
2	30.6760006	64.09500122	92.83599854	0	0	0	1.0
3	30.6760006	64.09500122	92.83599854	0	0	0	1.0
[RightEye]
1	-30.6760006	64.09500122	92.83499908	0	0	0	1.0
2	-30.6760006	64.09500122	92.83499908	0	0	0	1.0
3	-30.6760006	64.09500122	92.83499908	0	0	0	1.0
[LeftShoulder]
1	45.70400238	109.4599991	-26.28000069	0.1850432903	2.184340715	-12.2898531	1.0
2	45.70400238	109.4599991	-26.28000069	-0.4823019207	5.954733849	-10.30116844	1.0
3	45.70400238	109.4599991	-26.28000069	-0.9988750815	9.721957207	-5.548397064	1.0
[LeftArm]
1	105.923996	-5.24600029	-22.32099915	12.18904018	4.497193813	-45.2636261	1.0
2	105.923996	-5.24600029	-22.32099915	12.12328148	14.0238781	-47.36312866	1.0
3	105.923996	-5.24600029	-22.32099915	13.6003828	25.0341301	-48.82413483	1.0
[LeftForeArm]
1	278.414978	-0.0009999999311	0	4.350868039e-06	-60.06949615	-0.0002176755952	1.0
2	278.414978	-0.0009999999311	0	2.163117097e-05	-50.53656006	-0.0002232459665	1.0
3	278.414978	-0.0009999999311	0	-1.786584289e-05	-49.30184174	-0.0001917082263	1.0
[LeftHand]
1	283.2879944	0	0	22.52725601	-12.02472591	4.364478111	1.0
2	283.2879944	0	0	28.43274689	-19.70121002	4.382875919	1.0
3	283.2879944	0	0	30.19826698	-25.7629509	7.666369915	1.0
[LeftHandThumb1]
1	24.6609993	-15.75	26.8239994	-4.971790791	-10.17428303	-6.735486507	1.0
2	24.6609993	-15.75	26.8239994	-4.426632881	-8.571326256	-6.296307087	1.0
3	24.6609993	-15.75	26.8239994	-3.743237972	-6.608997822	-5.738440514	1.0
[LeftHandThumb2]
1	32.29800034	-18.64699936	18.64699936	5.51215744	4.076936245	15.20925617	1.0
2	32.29800034	-18.64699936	18.64699936	5.792386532	5.609116077	15.56475544	1.0
3	32.29800034	-18.64699936	18.64699936	6.150804043	7.487662315	16.01343727	1.0
[LeftHandThumb3]
1	26.52600098	-15.31499958	15.31499958	-32.4339447	-28.76949692	24.07482529	1.0
2	26.52600098	-15.31499958	15.31499958	-31.8492012	-27.75778389	23.73353195	1.0
3	26.52600098	-15.31499958	15.31499958	-31.14785767	-26.51149368	23.33467865	1.0
[LeftHandThumb4]
1	19.54599953	-11.28499985	11.28499985	0	0	0	1.0
2	19.54599953	-11.28499985	11.28499985	0	0	0	1.0
3	19.54599953	-11.28499985	11.28499985	0	0	0	1.0
[LeftHandIndex1]
1	91.09299469	-5.170999527	22.60099792	0.06813944131	-4.559720993	-0.9433012009	1.0
2	91.09299469	-5.170999527	22.60099792	-0.08815642446	-4.512330055	-4.399353027	1.0
3	91.09299469	-5.170999527	22.60099792	-0.3742997646	-4.359599113	-9.794441223	1.0
[LeftHandIndex2]
1	36.76399994	0	0	-0.001499197446	0.1329947561	-1.303635716	1.0
2	36.76399994	0	0	-0.01798365824	0.4581679702	-4.495754719	1.0
3	36.76399994	0	0	-0.06796129793	0.888725698	-8.74590683	1.0
[LeftHandIndex3]
1	28.83100128	0	0	-0.16025576	-1.359176278	13.44822979	1.0
2	28.83100128	0	0	-0.09524794668	-1.050854087	10.3580246	1.0
3	28.83100128	0	0	-0.03542982414	-0.6426392794	6.312363148	1.0
[LeftHandIndex4]
1	23.92700005	0	0	0	0	0	1.0
2	23.92700005	0	0	0	0	0	1.0
3	23.92700005	0	0	0	0	0	1.0
[LeftHandMiddle1]
1	95.33399963	0	0	-0.2724796534	0.7364432216	-7.177445412	1.0
2	95.33399963	0	0	-0.4853459895	0.7297366858	-10.92975807	1.0
3	95.33399963	0	0	-0.8551553488	0.6253141165	-16.71196365	1.0
[LeftHandMiddle2]
1	36.98199844	0	0	-0.04798075557	0.7473728657	-7.346149445	1.0
2	36.98199844	0	0	-0.110165976	1.129333735	-11.14114666	1.0
3	36.98199844	0	0	-0.2546718419	1.706219673	-16.97641182	1.0
[LeftHandMiddle3]
1	29.50900078	0	0	-0.1798218638	-1.438524365	14.24971485	1.0
2	29.50900078	0	0	-0.1295508295	-1.223730803	12.08613396	1.0
3	29.50900078	0	0	-0.06819658726	-0.8902484179	8.760896683	1.0
[LeftHandMiddle4]
1	28.3390007	0	0	0	0	0	1.0
2	28.3390007	0	0	0	0	0	1.0
3	28.3390007	0	0	0	0	0	1.0
[LeftHandRing1]
1	91.04499817	-0.4390000105	-18.65100098	-0.1059367731	9.291766167	-4.555848598	1.0
2	91.04499817	-0.4390000105	-18.65100098	-0.3383066356	9.399273872	-8.838894844	1.0
3	91.04499817	-0.4390000105	-18.65100098	-0.7475863695	9.121064186	-15.32182884	1.0
[LeftHandRing2]
1	31.54000092	0	0	-0.4650621116	2.284096956	-23.01428032	1.0
2	31.54000092	0	0	-0.6498105526	2.677277327	-27.2807045	1.0
3	31.54000092	0	0	-0.9808291197	3.238869667	-33.6888504	1.0
[LeftHandRing3]
1	29.37700081	0	0	-0.1500808597	-1.315906048	13.01241016	1.0
2	29.37700081	0	0	-0.07464256883	-0.9312282205	9.167597771	1.0
3	29.37700081	0	0	-0.01534142438	-0.4233315885	4.153153896	1.0
[LeftHandRing4]
1	26.47500038	0	0	0	0	0	1.0
2	26.47500038	0	0	0	0	0	1.0
3	26.47500038	0	0	0	0	0	1.0
[LeftHandPinky1]
1	80.77799988	-4.887000084	-38.06099701	-1.469800711	19.916996	-7.039821625	1.0
2	80.77799988	-4.887000084	-38.06099701	-1.73702836	19.8585968	-12.43076611	1.0
3	80.77799988	-4.887000084	-38.06099701	-2.200854778	18.84318352	-20.31789589	1.0
[LeftHandPinky2]
1	36	0	0	-0.9018329382	3.117252588	-32.26363754	1.0
2	36	0	0	-1.209366441	3.557340145	-37.54302979	1.0
3	36	0	0	-1.724292994	4.140635014	-45.20207596	1.0
[LeftHandPinky3]
1	21.14200211	0	0	-0.1620915234	-1.366874814	13.52596855	1.0
2	21.14200211	0	0	-0.06211635843	-0.8499271274	8.361142159	1.0
3	21.14200211	0	0	-0.001142669003	-0.1152622104	1.129861355	1.0
[LeftHandPinky4]
1	19.75699997	0	0	0	0	0	1.0
2	19.75699997	0	0	0	0	0	1.0
3	19.75699997	0	0	0	0	0	1.0
[RightShoulder]
1	-45.70000076	109.4620056	-26.28000069	4.002749443	15.29623222	14.15849972	1.0
2	-45.70000076	109.4620056	-26.28000069	3.889709949	15.95026684	12.69780636	1.0
3	-45.70000076	109.4620056	-26.28000069	3.567579508	15.95351028	10.73716259	1.0
[RightArm]
1	-105.9280014	-5.248000145	-22.32099915	-4.993871689	-6.078451633	50.22914124	1.0
2	-105.9280014	-5.248000145	-22.32099915	-7.171907902	3.198009253	42.70515442	1.0
3	-105.9280014	-5.248000145	-22.32099915	-12.86545372	6.489627838	37.37180328	1.0
[RightForeArm]
1	-278.414978	0	0	7.759884284e-06	65.23538971	1.609461651e-05	1.0
2	-278.414978	0	0	0.0002780866926	86.95133209	0.0002279924229	1.0
3	-278.414978	0	0	0	107.7312393	0	1.0
[RightHand]
1	-283.2879944	0	0.0009999999311	18.77562523	-32.0205574	20.13049316	1.0
2	-283.2879944	0	0.0009999999311	12.81787586	-36.22686005	17.11775208	1.0
3	-283.2879944	0	0.0009999999311	17.6131115	-34.51123428	10.89420319	1.0
[RightHandPinky1]
1	-80.76699829	-4.885000229	-38.06000137	-4.363529205	-3.668189287	56.88433838	1.0
2	-80.76699829	-4.885000229	-38.06000137	-4.382148743	-3.665821791	57.14963913	1.0
3	-80.76699829	-4.885000229	-38.06000137	-4.375585556	-3.666079044	57.05039978	1.0
[RightHandPinky2]
1	-36	0	0.0009999999311	-3.9499681	-4.580345154	81.55912018	1.0
2	-36	0	0.0009999999311	-3.971177101	-4.583439827	81.82466125	1.0
3	-36	0	0.0009999999311	-3.963243961	-4.582292557	81.72531891	1.0
[RightHandPinky3]
1	-21.14200211	0	0	-0.654419601	-2.375165939	30.80466843	1.0
2	-21.14200211	0	0	-0.6654136181	-2.393492699	31.06899452	1.0
3	-21.14200211	0	0	-0.6612876654	-2.386641264	30.97010612	1.0
[RightHandPinky4]
1	-19.75699997	0	0	0	0	0	1.0
2	-19.75699997	0	0	0	0	0	1.0
3	-19.75699997	0	0	0	0	0	1.0
[RightHandRing1]
1	-91.03599548	-0.4390000105	-18.65100098	-2.913738489	-2.464434862	44.78636551	1.0
2	-91.03599548	-0.4390000105	-18.65100098	-2.929620743	-2.465760231	44.97158051	1.0
3	-91.03599548	-0.4390000105	-18.65100098	-2.923678637	-2.464691877	44.90230942	1.0
[RightHandRing2]
1	-31.54000092	0	0	-2.550780535	-4.138105869	63.28658295	1.0
2	-31.54000092	0	0	-2.564201832	-4.144815445	63.47248459	1.0
3	-31.54000092	0	0	-2.559161186	-4.142317295	63.40291595	1.0
[RightHandRing3]
1	-29.37700081	0	0	-0.07811982185	-0.8478688002	10.52816582	1.0
2	-29.37700081	0	0	-0.08087722212	-0.8625732064	10.71293259	1.0
3	-29.37700081	0	0	-0.07983963192	-0.8570708632	10.64380836	1.0
[RightHandRing4]
1	-26.47500038	0	0	0	0	0	1.0
2	-26.47500038	0	0	0	0	0	1.0
3	-26.47500038	0	0	0	0	0	1.0
[RightHandMiddle1]
1	-95.32500458	0	0	-2.688034534	1.604595542	42.25610733	1.0
2	-95.32500458	0	0	-2.700378418	1.609039545	42.40201187	1.0
3	-95.32500458	0	0	-2.695750475	1.608330131	42.34738541	1.0
[RightHandMiddle2]
1	-36.98199844	0	0	-1.273289561	-3.190984249	43.4981308	1.0
2	-36.98199844	0	0	-1.281574726	-3.199674368	43.64670181	1.0
3	-36.98199844	0	0	-1.278478146	-3.196429491	43.59109116	1.0
[RightHandMiddle3]
1	-29.50900078	0	0	-0.0006400772254	0.07509783655	-0.9522154331	1.0
2	-29.50900078	0	0	-0.0004889692063	0.06574945897	-0.8367832303	1.0
3	-29.50900078	0	0	-0.000531290716	0.069191508	-0.8792905807	1.0
[RightHandMiddle4]
1	-28.3390007	0	0.0009999999311	0	0	0	1.0
2	-28.3390007	0	0.0009999999311	0	0	0	1.0
3	-28.3390007	0	0.0009999999311	0	0	0	1.0
[RightHandIndex1]
1	-91.08300018	-5.167999744	22.60099792	-1.921305776	3.415119886	32.98794174	1.0
2	-91.08300018	-5.167999744	22.60099792	-1.931685686	3.417024136	33.11081696	1.0
3	-91.08300018	-5.167999744	22.60099792	-1.927931309	3.41713953	33.06480789	1.0
[RightHandIndex2]
1	-36.76399994	0	0	-0.2828500867	-1.595111012	20.10954475	1.0
2	-36.76399994	0	0	-0.2863814235	-1.604725838	20.23609543	1.0
3	-36.76399994	0	0	-0.2850564122	-1.601123929	20.18876076	1.0
[RightHandIndex3]
1	-28.83100128	0	0	-0.00695863599	-0.2540406585	3.138142347	1.0
2	-28.83100128	0	0	-0.007526312955	-0.264122963	3.262831688	1.0
3	-28.83100128	0	0	-0.007315096911	-0.2603578568	3.216166973	1.0
[RightHandIndex4]
1	-23.92700005	0	0	0	0	0	1.0
2	-23.92700005	0	0	0	0	0	1.0
3	-23.92700005	0	0	0	0	0	1.0
[RightHandThumb1]
1	-24.64799881	-15.72700024	26.82600021	-0.9397881031	-1.751819372	3.002784252	1.0
2	-24.64799881	-15.72700024	26.82600021	-0.8967459202	-1.87605834	2.956469774	1.0
3	-24.64799881	-15.72700024	26.82600021	-0.9143282771	-1.82972753	2.971920967	1.0
[RightHandThumb2]
1	-32.29800034	-18.64699936	18.64699936	9.56985569	-19.11500359	-19.93793488	1.0
2	-32.29800034	-18.64699936	18.64699936	9.600827217	-19.23244095	-19.97506905	1.0
3	-32.29800034	-18.64699936	18.64699936	9.589282036	-19.18850136	-19.96088409	1.0
[RightHandThumb3]
1	-26.52600098	-15.31399918	15.31399918	-24.11720085	14.22310829	-21.00470924	1.0
2	-26.52600098	-15.31399918	15.31399918	-24.0804348	14.14225101	-20.98986053	1.0
3	-26.52600098	-15.31399918	15.31399918	-24.09418488	14.17251778	-20.99535942	1.0
[RightHandThumb4]
1	-19.54599953	-11.28499985	11.28499985	0	0	0	1.0
2	-19.54599953	-11.28499985	11.28499985	0	0	0	1.0
3	-19.54599953	-11.28499985	11.28499985	0	0	0	1.0
[LeftUpLeg]
1	82.07800293	-67.51699829	-15.99599934	-45.16399002	-2.547734261	7.698777676	1.0
2	82.07800293	-67.51699829	-15.99599934	-66.01989746	-0.4117706418	3.653171778	1.0
3	82.07800293	-67.51699829	-15.99599934	-80.28510284	-1.851867318	-3.260035992	1.0
[LeftLeg]
1	0	-443.7049866	2.845999956	112.7300034	-0.4176832139	4.396115303	1.0
2	0	-443.7049866	2.845999956	112.8319931	1.356849432	1.310304165	1.0
3	0	-443.7049866	2.845999956	99.75980377	1.975177407	1.648762703	1.0
[LeftFoot]
1	0	-444.2789917	-29.8219986	-1.546831489	-0.1407703459	3.191614628	1.0
2	0	-444.2789917	-29.8219986	-11.42546368	-0.08087510616	4.781180859	1.0
3	0	-444.2789917	-29.8219986	-16.28227997	0.5260494351	5.759945393	1.0
[LeftToeBase]
1	0	-87.28699493	107.1060028	-8.347726822	2.113296978e-05	4.223929409e-06	1.0
2	0	-87.28699493	107.1060028	-7.341892719	-1.691547186e-05	2.401243182e-05	1.0
3	0	-87.28699493	107.1060028	-5.935451984	-2.395203637e-06	2.016798862e-05	1.0
[RightUpLeg]
1	-82.07800293	-67.51699829	-15.99599934	-48.6608429	-2.310940027	9.603104591	1.0
2	-82.07800293	-67.51699829	-15.99599934	-31.69230652	-3.844110012	9.71681881	1.0
3	-82.07800293	-67.51699829	-15.99599934	-8.175808907	-7.308331013	7.731040478	1.0
[RightLeg]
1	0	-443.7049866	2.861999989	55.11271286	1.893864036	5.529719353	1.0
2	0	-443.7049866	2.861999989	47.52210617	3.886340141	2.97657156	1.0
3	0	-443.7049866	2.861999989	23.49860573	4.488258839	-3.346889734	1.0
[RightFoot]
1	0	-444.2770081	-29.83799934	-25.97934341	-2.829861879	-10.49245834	1.0
2	0	-444.2770081	-29.83799934	-36.05908585	-2.573143721	-11.01619816	1.0
3	0	-444.2770081	-29.83799934	-28.21868515	1.928982615	-9.314735413	1.0
[RightToeBase]
1	0	-87.28699493	107.1060028	-9.829594612	2.564626084e-05	-6.007291177e-06	1.0
2	0	-87.28699493	107.1060028	-11.33495903	5.301788406e-06	1.23609297e-07	1.0
3	0	-87.28699493	107.1060028	-20.60992622	-3.061008442e-07	-8.164345218e-07	1.0
[EndOfFile]
